<svg width="260" height="103" viewBox="0 0 260 103" fill="none" xmlns="http://www.w3.org/2000/svg">
<g clip-path="url(#clip0_1037_927)">
<path d="M239.763 63.5439H20.2285V65.8894H239.763V63.5439Z" fill="black"/>
<path d="M256.256 3.74908V99.2509H3.73529V3.74908H256.256ZM259.991 0H0V103H260V0H259.991Z" fill="black"/>
<path d="M20.2285 19.1709H50.156C54.7935 19.1709 58.0777 19.9225 60.0175 21.4258C61.9574 22.929 62.9318 24.867 62.9318 27.2396V27.9006C62.9318 28.9783 62.7333 29.9472 62.3453 30.8166C61.9574 31.6859 61.425 32.3832 60.7754 32.9085C60.1258 33.4337 59.5213 33.8321 58.989 34.1219C58.4566 34.4027 57.9243 34.629 57.392 34.783C58.1409 34.9732 58.8807 35.2448 59.6025 35.589C60.3243 35.9331 61.1183 36.4311 62.0025 37.0832C62.8867 37.7352 63.5814 38.6226 64.1137 39.7637C64.646 40.9047 64.9077 42.1996 64.9077 43.6576V44.3187C64.9077 51.0924 60.0807 54.4792 50.4357 54.4792H20.2285V19.1709ZM31.1727 32.3651H48.2703C50.8056 32.3651 52.0778 31.4143 52.0778 29.5126V29.422C52.0778 27.5565 50.8056 26.6238 48.2703 26.6238H31.1727V32.3651ZM31.1727 39.8633V46.7909H49.2086C50.8327 46.7909 51.9605 46.4468 52.5921 45.7495C53.2146 45.0522 53.5304 44.2462 53.5304 43.3316V43.1414C53.5304 40.959 52.0868 39.8633 49.2086 39.8633H31.1727Z" fill="black"/>
<path d="M105.924 19.1709V27.1943H79.9034V32.4194H105.32V40.4881H79.9034V46.2838H106.402V54.4973H69.1035V19.1709H105.933H105.924Z" fill="black"/>
<path d="M122.147 19.3066V45.7766H146.372V54.5425H111.221V19.3066H122.138H122.147Z" fill="black"/>
<path d="M162.983 41.3391H159.663V54.5242H149.711V19.6777H159.663V30.8435H163.416L175.93 19.6777H188.571L170.3 35.5977L189.428 54.5242H176.453L162.992 41.3391H162.983Z" fill="black"/>
<path d="M239.763 54.4705H229.045L226.058 48.1043H203.268L200.281 54.4705H189.562L206.552 19.624H222.765L239.754 54.4705H239.763ZM206.94 40.2349H222.386L216.368 27.4391H212.958L206.94 40.2349Z" fill="black"/>
<path d="M20.2278 74.9456H27.7615C28.9254 74.9456 29.7555 75.1357 30.2427 75.5161C30.7299 75.8964 30.9735 76.3854 30.9735 76.9831V77.1461C30.9735 77.4178 30.9284 77.6623 30.8292 77.8796C30.7299 78.097 30.5946 78.2781 30.4322 78.4049C30.2698 78.5317 30.1164 78.6403 29.981 78.7128C29.8457 78.7852 29.7104 78.8395 29.575 78.8758C29.7645 78.921 29.954 78.9935 30.1344 79.075C30.3149 79.1656 30.5134 79.2923 30.7389 79.4553C30.9555 79.6183 31.1359 79.8447 31.2713 80.1345C31.4066 80.4243 31.4697 80.7503 31.4697 81.1125V81.2755C31.4697 82.978 30.2517 83.8293 27.8247 83.8293H20.2188V74.9365L20.2278 74.9456ZM22.9796 78.269H27.2833C27.9239 78.269 28.2397 78.0336 28.2397 77.5536V77.5265C28.2397 77.0556 27.9239 76.8201 27.2833 76.8201H22.9796V78.269ZM22.9796 80.1617V81.9094H27.5179C27.9239 81.9094 28.2126 81.8189 28.366 81.6468C28.5194 81.4748 28.6006 81.2665 28.6006 81.0401V80.9948C28.6006 80.4424 28.2397 80.1707 27.5089 80.1707H22.9706L22.9796 80.1617Z" fill="black"/>
<path d="M42.4413 81.4381V83.8469H39.9421V82.2893C39.9421 81.746 39.8158 81.3566 39.5722 81.1121C39.3196 80.8676 38.8955 80.7499 38.291 80.7499H35.0429V83.8469H32.5527V75.1172H38.9677C41.2684 75.1172 42.4233 75.8688 42.4233 77.3811V77.526C42.4233 78.4497 41.9271 79.0836 40.9436 79.4368C41.3947 79.5817 41.7556 79.8171 42.0353 80.1431C42.315 80.4782 42.4504 80.9038 42.4504 81.4381H42.4413ZM39.8068 77.9426C39.8068 77.689 39.7256 77.4898 39.5632 77.3358C39.4008 77.1819 39.1481 77.1004 38.8053 77.1004H35.0339V78.8119H38.8053C39.1481 78.8119 39.4008 78.7304 39.5632 78.5765C39.7256 78.4225 39.8068 78.2143 39.8068 77.9516V77.9426Z" fill="black"/>
<path d="M55.5963 83.8287H52.8986L52.1497 82.2259H46.4114L45.6626 83.8287H42.9648L47.2415 75.0537H51.3287L55.6053 83.8287H55.5963ZM47.3317 80.2427H51.2204L49.7046 77.0188H48.8475L47.3317 80.2427Z" fill="black"/>
<path d="M59.3411 74.9727L64.944 80.551V74.9727H67.6598V83.8473H64.944L58.9892 77.9701V83.8473H56.2734V74.9727H59.3411Z" fill="black"/>
<path d="M74.8766 74.9456C75.6976 74.9456 76.4375 74.9999 77.0961 75.1086C77.7548 75.2173 78.3141 75.3803 78.7562 75.5885C79.1983 75.7968 79.5773 76.0323 79.8931 76.2949C80.2089 76.5575 80.4525 76.8473 80.6149 77.1733C80.7773 77.4993 80.9036 77.8253 80.9758 78.1332C81.0479 78.4502 81.084 78.7852 81.084 79.1474V79.5097C81.084 79.9353 81.0389 80.3247 80.9397 80.696C80.8495 81.0673 80.66 81.4476 80.3803 81.8461C80.1006 82.2445 79.7397 82.5796 79.2976 82.8603C78.8555 83.141 78.26 83.3674 77.5021 83.5576C76.7442 83.7387 75.8781 83.8293 74.8856 83.8293H69.0391V74.9365H74.8676L74.8766 74.9456ZM71.7999 81.7012H74.6601C77.0149 81.7012 78.1969 80.9405 78.1969 79.4101V79.3376C78.1969 77.8163 77.0149 77.0556 74.6601 77.0556H71.7999V81.7012Z" fill="black"/>
<path d="M91.0448 74.9727V81.6377H97.144V83.8473H88.293V74.9727H91.0448Z" fill="black"/>
<path d="M104.199 74.8184C104.966 74.8184 105.652 74.8727 106.275 74.9814C106.897 75.09 107.42 75.2259 107.836 75.407C108.26 75.579 108.62 75.7964 108.936 76.0499C109.252 76.3035 109.496 76.5571 109.676 76.8106C109.857 77.0642 110.001 77.3449 110.109 77.6437C110.217 77.9426 110.29 78.2143 110.326 78.4588C110.353 78.6942 110.371 78.9478 110.371 79.2104V79.5726C110.371 79.8262 110.353 80.0707 110.326 80.3152C110.299 80.5597 110.226 80.8223 110.109 81.1302C110.001 81.4381 109.857 81.7188 109.685 81.9814C109.514 82.2441 109.27 82.4976 108.945 82.7602C108.63 83.0229 108.26 83.2402 107.845 83.4123C107.43 83.5934 106.906 83.7383 106.284 83.8469C105.661 83.9556 104.966 84.0099 104.199 84.0099H103.83C103.063 84.0099 102.368 83.9556 101.745 83.8469C101.114 83.7383 100.591 83.5934 100.175 83.4123C99.7604 83.2311 99.3905 83.0138 99.0747 82.7602C98.7589 82.4976 98.5063 82.2441 98.3349 81.9814C98.1544 81.7188 98.0191 81.4381 97.9108 81.1302C97.8026 80.8223 97.7394 80.5506 97.7033 80.3152C97.6763 80.0797 97.6582 79.8262 97.6582 79.5726V79.2104C97.6582 78.9478 97.6763 78.7033 97.7033 78.4678C97.7304 78.2324 97.8026 77.9607 97.9108 77.6528C98.0191 77.3449 98.1544 77.0642 98.3349 76.8106C98.5153 76.5571 98.7589 76.3035 99.0747 76.0499C99.3905 75.7964 99.7604 75.579 100.175 75.407C100.6 75.2349 101.123 75.09 101.754 74.9814C102.386 74.8727 103.081 74.8184 103.839 74.8184H104.209H104.199ZM107.493 79.2919C107.493 79.0655 107.466 78.8572 107.411 78.658C107.357 78.4588 107.249 78.2505 107.096 78.0422C106.942 77.8249 106.735 77.6437 106.482 77.4898C106.23 77.3359 105.887 77.2091 105.454 77.1185C105.102 77.037 104.696 76.9917 104.245 76.9736C104.145 76.9736 103.938 76.9736 103.875 76.9736C101.646 77.0189 100.527 77.7886 100.527 79.3009V79.4458C100.527 79.7356 100.572 79.9982 100.672 80.2609C100.771 80.5144 100.933 80.768 101.177 81.0215C101.412 81.2751 101.781 81.4743 102.278 81.6283C102.738 81.7641 103.279 81.8456 103.92 81.8547C103.974 81.8547 104.118 81.8547 104.199 81.8547C104.795 81.8366 105.3 81.7641 105.733 81.6373C106.221 81.4924 106.59 81.2932 106.834 81.0396C107.078 80.7861 107.249 80.5325 107.348 80.279C107.448 80.0254 107.493 79.7537 107.493 79.464V79.3009V79.2919Z" fill="black"/>
<path d="M114.413 80.3427L109.775 74.9727H113.141L115.829 78.1965L118.563 74.9727H121.631L117.12 80.3427V83.7296H114.404V80.3427H114.413Z" fill="black"/>
<path d="M132.747 83.8287H130.049L129.3 82.2259H123.562L122.813 83.8287H120.115L124.392 75.0537H128.479L132.756 83.8287H132.747ZM124.482 80.2427H128.371L126.855 77.0188H125.998L124.482 80.2427Z" fill="black"/>
<path d="M136.176 74.9727V81.6377H142.275V83.8473H133.424V74.9727H136.176Z" fill="black"/>
<path d="M145.848 83.8377H143.105V74.9902H145.848V83.8377Z" fill="black"/>
<path d="M150.431 77.0736H146.65V74.9727H156.99V77.0736H153.201V83.8473H150.431V77.0736Z" fill="black"/>
<path d="M161.673 80.3427L157.035 74.9727H160.401L163.089 78.1965L165.823 74.9727H168.891L164.379 80.3427V83.7296H161.664V80.3427H161.673Z" fill="black"/>
<path d="M179.031 80.5238H178.192V83.8473H175.684V75.0723H178.192V77.8886H179.139L182.288 75.0723H185.473L180.872 79.084L185.689 83.8473H182.423L179.031 80.5238Z" fill="black"/>
<path d="M195.687 74.9456V76.965H189.137V78.2781H195.534V80.3066H189.137V81.7646H195.804V83.8293H186.412V74.9365H195.687V74.9456Z" fill="black"/>
<path d="M206.299 74.9456V76.965H199.748V78.2781H206.145V80.3066H199.748V81.7646H206.416V83.8293H197.023V74.9365H206.299V74.9456Z" fill="black"/>
<path d="M210.385 80.8861V83.8473H207.633V74.9727H214.219C216.953 74.9727 218.315 75.9326 218.315 77.8614V77.9792C218.315 79.9171 216.953 80.8861 214.219 80.8861H210.385ZM210.385 78.8938H214.174C215.022 78.8938 215.446 78.5859 215.446 77.961V77.9248C215.446 77.3 215.022 76.983 214.174 76.983H210.385V78.8938Z" fill="black"/>
<path d="M228.521 74.9456V76.965H221.971V78.2781H228.368V80.3066H221.971V81.7646H228.638V83.8293H219.246V74.9365H228.521V74.9456Z" fill="black"/>
<path d="M239.762 81.4381V83.8469H237.262V82.2893C237.262 81.746 237.136 81.3566 236.893 81.1121C236.64 80.8676 236.216 80.7499 235.611 80.7499H232.363V83.8469H229.873V75.1172H236.288C238.589 75.1172 239.744 75.8688 239.744 77.3811V77.526C239.744 78.4497 239.247 79.0836 238.264 79.4368C238.715 79.5817 239.076 79.8171 239.356 80.1431C239.635 80.4782 239.771 80.9038 239.771 81.4381H239.762ZM237.127 77.9426C237.127 77.689 237.046 77.4898 236.883 77.3358C236.721 77.1819 236.468 77.1004 236.126 77.1004H232.354V78.8119H236.126C236.468 78.8119 236.721 78.7304 236.883 78.5765C237.046 78.4225 237.127 78.2143 237.127 77.9516V77.9426Z" fill="black"/>
</g>
<defs>
<clipPath id="clip0_1037_927">
<rect width="260" height="103" fill="white"/>
</clipPath>
</defs>
</svg>
